<svg xmlns="http://www.w3.org/2000/svg" xmlns:xlink="http://www.w3.org/1999/xlink" width="600" height="400" viewBox="0 0 2400 1600">
<defs>
  <clipPath id="clip570">
    <rect x="0" y="0" width="2400" height="1600"></rect>
  </clipPath>
</defs>
<path clip-path="url(#clip570)" d="M0 1600 L2400 1600 L2400 0 L0 0  Z" fill="#ffffff" fill-rule="evenodd" fill-opacity="1"></path>
<defs>
  <clipPath id="clip571">
    <rect x="480" y="0" width="1681" height="1600"></rect>
  </clipPath>
</defs>
<path clip-path="url(#clip570)" d="M147.709 1486.45 L2352.76 1486.45 L2352.76 47.2441 L147.709 47.2441  Z" fill="#ffffff" fill-rule="evenodd" fill-opacity="1"></path>
<defs>
  <clipPath id="clip572">
    <rect x="147" y="47" width="2206" height="1440"></rect>
  </clipPath>
</defs>
<polyline clip-path="url(#clip572)" style="stroke:#000000; stroke-linecap:round; stroke-linejoin:round; stroke-width:2; stroke-opacity:0.1; fill:none" points="210.116,1486.45 210.116,47.2441 "></polyline>
<polyline clip-path="url(#clip572)" style="stroke:#000000; stroke-linecap:round; stroke-linejoin:round; stroke-width:2; stroke-opacity:0.1; fill:none" points="730.175,1486.45 730.175,47.2441 "></polyline>
<polyline clip-path="url(#clip572)" style="stroke:#000000; stroke-linecap:round; stroke-linejoin:round; stroke-width:2; stroke-opacity:0.1; fill:none" points="1250.23,1486.45 1250.23,47.2441 "></polyline>
<polyline clip-path="url(#clip572)" style="stroke:#000000; stroke-linecap:round; stroke-linejoin:round; stroke-width:2; stroke-opacity:0.1; fill:none" points="1770.29,1486.45 1770.29,47.2441 "></polyline>
<polyline clip-path="url(#clip572)" style="stroke:#000000; stroke-linecap:round; stroke-linejoin:round; stroke-width:2; stroke-opacity:0.1; fill:none" points="2290.35,1486.45 2290.35,47.2441 "></polyline>
<polyline clip-path="url(#clip572)" style="stroke:#000000; stroke-linecap:round; stroke-linejoin:round; stroke-width:2; stroke-opacity:0.1; fill:none" points="147.709,1324.4 2352.76,1324.4 "></polyline>
<polyline clip-path="url(#clip572)" style="stroke:#000000; stroke-linecap:round; stroke-linejoin:round; stroke-width:2; stroke-opacity:0.1; fill:none" points="147.709,992.064 2352.76,992.064 "></polyline>
<polyline clip-path="url(#clip572)" style="stroke:#000000; stroke-linecap:round; stroke-linejoin:round; stroke-width:2; stroke-opacity:0.1; fill:none" points="147.709,659.728 2352.76,659.728 "></polyline>
<polyline clip-path="url(#clip572)" style="stroke:#000000; stroke-linecap:round; stroke-linejoin:round; stroke-width:2; stroke-opacity:0.1; fill:none" points="147.709,327.392 2352.76,327.392 "></polyline>
<polyline clip-path="url(#clip570)" style="stroke:#000000; stroke-linecap:round; stroke-linejoin:round; stroke-width:4; stroke-opacity:1; fill:none" points="147.709,1486.45 2352.76,1486.45 "></polyline>
<polyline clip-path="url(#clip570)" style="stroke:#000000; stroke-linecap:round; stroke-linejoin:round; stroke-width:4; stroke-opacity:1; fill:none" points="210.116,1486.45 210.116,1467.55 "></polyline>
<polyline clip-path="url(#clip570)" style="stroke:#000000; stroke-linecap:round; stroke-linejoin:round; stroke-width:4; stroke-opacity:1; fill:none" points="730.175,1486.45 730.175,1467.55 "></polyline>
<polyline clip-path="url(#clip570)" style="stroke:#000000; stroke-linecap:round; stroke-linejoin:round; stroke-width:4; stroke-opacity:1; fill:none" points="1250.23,1486.45 1250.23,1467.55 "></polyline>
<polyline clip-path="url(#clip570)" style="stroke:#000000; stroke-linecap:round; stroke-linejoin:round; stroke-width:4; stroke-opacity:1; fill:none" points="1770.29,1486.45 1770.29,1467.55 "></polyline>
<polyline clip-path="url(#clip570)" style="stroke:#000000; stroke-linecap:round; stroke-linejoin:round; stroke-width:4; stroke-opacity:1; fill:none" points="2290.35,1486.45 2290.35,1467.55 "></polyline>
<path clip-path="url(#clip570)" d="M172.42 1517.37 Q168.809 1517.37 166.98 1520.93 Q165.174 1524.47 165.174 1531.6 Q165.174 1538.71 166.98 1542.27 Q168.809 1545.82 172.42 1545.82 Q176.054 1545.82 177.86 1542.27 Q179.688 1538.71 179.688 1531.6 Q179.688 1524.47 177.86 1520.93 Q176.054 1517.37 172.42 1517.37 M172.42 1513.66 Q178.23 1513.66 181.286 1518.27 Q184.364 1522.85 184.364 1531.6 Q184.364 1540.33 181.286 1544.94 Q178.23 1549.52 172.42 1549.52 Q166.61 1549.52 163.531 1544.94 Q160.475 1540.33 160.475 1531.6 Q160.475 1522.85 163.531 1518.27 Q166.61 1513.66 172.42 1513.66 Z" fill="#000000" fill-rule="nonzero" fill-opacity="1"></path><path clip-path="url(#clip570)" d="M192.582 1542.97 L197.466 1542.97 L197.466 1548.85 L192.582 1548.85 L192.582 1542.97 Z" fill="#000000" fill-rule="nonzero" fill-opacity="1"></path><path clip-path="url(#clip570)" d="M217.651 1517.37 Q214.04 1517.37 212.211 1520.93 Q210.406 1524.47 210.406 1531.6 Q210.406 1538.71 212.211 1542.27 Q214.04 1545.82 217.651 1545.82 Q221.285 1545.82 223.091 1542.27 Q224.92 1538.71 224.92 1531.6 Q224.92 1524.47 223.091 1520.93 Q221.285 1517.37 217.651 1517.37 M217.651 1513.66 Q223.461 1513.66 226.517 1518.27 Q229.595 1522.85 229.595 1531.6 Q229.595 1540.33 226.517 1544.94 Q223.461 1549.52 217.651 1549.52 Q211.841 1549.52 208.762 1544.94 Q205.707 1540.33 205.707 1531.6 Q205.707 1522.85 208.762 1518.27 Q211.841 1513.66 217.651 1513.66 Z" fill="#000000" fill-rule="nonzero" fill-opacity="1"></path><path clip-path="url(#clip570)" d="M247.813 1517.37 Q244.202 1517.37 242.373 1520.93 Q240.568 1524.47 240.568 1531.6 Q240.568 1538.71 242.373 1542.27 Q244.202 1545.82 247.813 1545.82 Q251.447 1545.82 253.253 1542.27 Q255.081 1538.71 255.081 1531.6 Q255.081 1524.47 253.253 1520.93 Q251.447 1517.37 247.813 1517.37 M247.813 1513.66 Q253.623 1513.66 256.679 1518.27 Q259.757 1522.85 259.757 1531.6 Q259.757 1540.33 256.679 1544.94 Q253.623 1549.52 247.813 1549.52 Q242.003 1549.52 238.924 1544.94 Q235.869 1540.33 235.869 1531.6 Q235.869 1522.85 238.924 1518.27 Q242.003 1513.66 247.813 1513.66 Z" fill="#000000" fill-rule="nonzero" fill-opacity="1"></path><path clip-path="url(#clip570)" d="M692.976 1517.37 Q689.365 1517.37 687.536 1520.93 Q685.73 1524.47 685.73 1531.6 Q685.73 1538.71 687.536 1542.27 Q689.365 1545.82 692.976 1545.82 Q696.61 1545.82 698.415 1542.27 Q700.244 1538.71 700.244 1531.6 Q700.244 1524.47 698.415 1520.93 Q696.61 1517.37 692.976 1517.37 M692.976 1513.66 Q698.786 1513.66 701.841 1518.27 Q704.92 1522.85 704.92 1531.6 Q704.92 1540.33 701.841 1544.94 Q698.786 1549.52 692.976 1549.52 Q687.165 1549.52 684.087 1544.94 Q681.031 1540.33 681.031 1531.6 Q681.031 1522.85 684.087 1518.27 Q687.165 1513.66 692.976 1513.66 Z" fill="#000000" fill-rule="nonzero" fill-opacity="1"></path><path clip-path="url(#clip570)" d="M713.138 1542.97 L718.022 1542.97 L718.022 1548.85 L713.138 1548.85 L713.138 1542.97 Z" fill="#000000" fill-rule="nonzero" fill-opacity="1"></path><path clip-path="url(#clip570)" d="M732.235 1544.91 L748.554 1544.91 L748.554 1548.85 L726.61 1548.85 L726.61 1544.91 Q729.272 1542.16 733.855 1537.53 Q738.462 1532.88 739.642 1531.53 Q741.887 1529.01 742.767 1527.27 Q743.67 1525.51 743.67 1523.82 Q743.67 1521.07 741.725 1519.33 Q739.804 1517.6 736.702 1517.6 Q734.503 1517.6 732.049 1518.36 Q729.619 1519.13 726.841 1520.68 L726.841 1515.95 Q729.665 1514.82 732.119 1514.24 Q734.573 1513.66 736.61 1513.66 Q741.98 1513.66 745.174 1516.35 Q748.369 1519.03 748.369 1523.52 Q748.369 1525.65 747.559 1527.57 Q746.772 1529.47 744.665 1532.07 Q744.086 1532.74 740.985 1535.95 Q737.883 1539.15 732.235 1544.91 Z" fill="#000000" fill-rule="nonzero" fill-opacity="1"></path><path clip-path="url(#clip570)" d="M758.415 1514.29 L776.771 1514.29 L776.771 1518.22 L762.697 1518.22 L762.697 1526.7 Q763.716 1526.35 764.735 1526.19 Q765.753 1526 766.772 1526 Q772.559 1526 775.938 1529.17 Q779.318 1532.34 779.318 1537.76 Q779.318 1543.34 775.846 1546.44 Q772.373 1549.52 766.054 1549.52 Q763.878 1549.52 761.61 1549.15 Q759.364 1548.78 756.957 1548.04 L756.957 1543.34 Q759.04 1544.47 761.262 1545.03 Q763.485 1545.58 765.961 1545.58 Q769.966 1545.58 772.304 1543.48 Q774.642 1541.37 774.642 1537.76 Q774.642 1534.15 772.304 1532.04 Q769.966 1529.94 765.961 1529.94 Q764.086 1529.94 762.211 1530.35 Q760.36 1530.77 758.415 1531.65 L758.415 1514.29 Z" fill="#000000" fill-rule="nonzero" fill-opacity="1"></path><path clip-path="url(#clip570)" d="M1212.54 1517.37 Q1208.93 1517.37 1207.1 1520.93 Q1205.29 1524.47 1205.29 1531.6 Q1205.29 1538.71 1207.1 1542.27 Q1208.93 1545.82 1212.54 1545.82 Q1216.17 1545.82 1217.98 1542.27 Q1219.8 1538.71 1219.8 1531.6 Q1219.8 1524.47 1217.98 1520.93 Q1216.17 1517.37 1212.54 1517.37 M1212.54 1513.66 Q1218.35 1513.66 1221.4 1518.27 Q1224.48 1522.85 1224.48 1531.6 Q1224.48 1540.33 1221.4 1544.94 Q1218.35 1549.52 1212.54 1549.52 Q1206.73 1549.52 1203.65 1544.94 Q1200.59 1540.33 1200.59 1531.6 Q1200.59 1522.85 1203.65 1518.27 Q1206.73 1513.66 1212.54 1513.66 Z" fill="#000000" fill-rule="nonzero" fill-opacity="1"></path><path clip-path="url(#clip570)" d="M1232.7 1542.97 L1237.58 1542.97 L1237.58 1548.85 L1232.7 1548.85 L1232.7 1542.97 Z" fill="#000000" fill-rule="nonzero" fill-opacity="1"></path><path clip-path="url(#clip570)" d="M1247.81 1514.29 L1266.17 1514.29 L1266.17 1518.22 L1252.1 1518.22 L1252.1 1526.7 Q1253.11 1526.35 1254.13 1526.19 Q1255.15 1526 1256.17 1526 Q1261.96 1526 1265.34 1529.17 Q1268.72 1532.34 1268.72 1537.76 Q1268.72 1543.34 1265.24 1546.44 Q1261.77 1549.52 1255.45 1549.52 Q1253.28 1549.52 1251.01 1549.15 Q1248.76 1548.78 1246.36 1548.04 L1246.36 1543.34 Q1248.44 1544.47 1250.66 1545.03 Q1252.88 1545.58 1255.36 1545.58 Q1259.36 1545.58 1261.7 1543.48 Q1264.04 1541.37 1264.04 1537.76 Q1264.04 1534.15 1261.7 1532.04 Q1259.36 1529.94 1255.36 1529.94 Q1253.48 1529.94 1251.61 1530.35 Q1249.76 1530.77 1247.81 1531.65 L1247.81 1514.29 Z" fill="#000000" fill-rule="nonzero" fill-opacity="1"></path><path clip-path="url(#clip570)" d="M1287.93 1517.37 Q1284.32 1517.37 1282.49 1520.93 Q1280.68 1524.47 1280.68 1531.6 Q1280.68 1538.71 1282.49 1542.27 Q1284.32 1545.82 1287.93 1545.82 Q1291.56 1545.82 1293.37 1542.27 Q1295.2 1538.71 1295.2 1531.6 Q1295.2 1524.47 1293.37 1520.93 Q1291.56 1517.37 1287.93 1517.37 M1287.93 1513.66 Q1293.74 1513.66 1296.79 1518.27 Q1299.87 1522.85 1299.87 1531.6 Q1299.87 1540.33 1296.79 1544.94 Q1293.74 1549.52 1287.93 1549.52 Q1282.12 1549.52 1279.04 1544.94 Q1275.98 1540.33 1275.98 1531.6 Q1275.98 1522.85 1279.04 1518.27 Q1282.12 1513.66 1287.93 1513.66 Z" fill="#000000" fill-rule="nonzero" fill-opacity="1"></path><path clip-path="url(#clip570)" d="M1733.09 1517.37 Q1729.48 1517.37 1727.65 1520.93 Q1725.85 1524.47 1725.85 1531.6 Q1725.85 1538.71 1727.65 1542.27 Q1729.48 1545.82 1733.09 1545.82 Q1736.73 1545.82 1738.53 1542.27 Q1740.36 1538.71 1740.36 1531.6 Q1740.36 1524.47 1738.53 1520.93 Q1736.73 1517.37 1733.09 1517.37 M1733.09 1513.66 Q1738.9 1513.66 1741.96 1518.27 Q1745.04 1522.85 1745.04 1531.6 Q1745.04 1540.33 1741.96 1544.94 Q1738.9 1549.52 1733.09 1549.52 Q1727.28 1549.52 1724.2 1544.94 Q1721.15 1540.33 1721.15 1531.6 Q1721.15 1522.85 1724.2 1518.27 Q1727.28 1513.66 1733.09 1513.66 Z" fill="#000000" fill-rule="nonzero" fill-opacity="1"></path><path clip-path="url(#clip570)" d="M1753.25 1542.97 L1758.14 1542.97 L1758.14 1548.85 L1753.25 1548.85 L1753.25 1542.97 Z" fill="#000000" fill-rule="nonzero" fill-opacity="1"></path><path clip-path="url(#clip570)" d="M1767.14 1514.29 L1789.36 1514.29 L1789.36 1516.28 L1776.82 1548.85 L1771.93 1548.85 L1783.74 1518.22 L1767.14 1518.22 L1767.14 1514.29 Z" fill="#000000" fill-rule="nonzero" fill-opacity="1"></path><path clip-path="url(#clip570)" d="M1798.53 1514.29 L1816.89 1514.29 L1816.89 1518.22 L1802.81 1518.22 L1802.81 1526.7 Q1803.83 1526.35 1804.85 1526.19 Q1805.87 1526 1806.89 1526 Q1812.67 1526 1816.05 1529.17 Q1819.43 1532.34 1819.43 1537.76 Q1819.43 1543.34 1815.96 1546.44 Q1812.49 1549.52 1806.17 1549.52 Q1803.99 1549.52 1801.73 1549.15 Q1799.48 1548.78 1797.07 1548.04 L1797.07 1543.34 Q1799.16 1544.47 1801.38 1545.03 Q1803.6 1545.58 1806.08 1545.58 Q1810.08 1545.58 1812.42 1543.48 Q1814.76 1541.37 1814.76 1537.76 Q1814.76 1534.15 1812.42 1532.04 Q1810.08 1529.94 1806.08 1529.94 Q1804.2 1529.94 1802.33 1530.35 Q1800.48 1530.77 1798.53 1531.65 L1798.53 1514.29 Z" fill="#000000" fill-rule="nonzero" fill-opacity="1"></path><path clip-path="url(#clip570)" d="M2242.42 1544.91 L2250.06 1544.91 L2250.06 1518.55 L2241.75 1520.21 L2241.75 1515.95 L2250.01 1514.29 L2254.69 1514.29 L2254.69 1544.91 L2262.33 1544.91 L2262.33 1548.85 L2242.42 1548.85 L2242.42 1544.91 Z" fill="#000000" fill-rule="nonzero" fill-opacity="1"></path><path clip-path="url(#clip570)" d="M2271.77 1542.97 L2276.66 1542.97 L2276.66 1548.85 L2271.77 1548.85 L2271.77 1542.97 Z" fill="#000000" fill-rule="nonzero" fill-opacity="1"></path><path clip-path="url(#clip570)" d="M2296.84 1517.37 Q2293.23 1517.37 2291.4 1520.93 Q2289.6 1524.47 2289.6 1531.6 Q2289.6 1538.71 2291.4 1542.27 Q2293.23 1545.82 2296.84 1545.82 Q2300.48 1545.82 2302.28 1542.27 Q2304.11 1538.71 2304.11 1531.6 Q2304.11 1524.47 2302.28 1520.93 Q2300.48 1517.37 2296.84 1517.37 M2296.84 1513.66 Q2302.65 1513.66 2305.71 1518.27 Q2308.79 1522.85 2308.79 1531.6 Q2308.79 1540.33 2305.71 1544.94 Q2302.65 1549.52 2296.84 1549.52 Q2291.03 1549.52 2287.95 1544.94 Q2284.9 1540.33 2284.9 1531.6 Q2284.9 1522.85 2287.95 1518.27 Q2291.03 1513.66 2296.84 1513.66 Z" fill="#000000" fill-rule="nonzero" fill-opacity="1"></path><path clip-path="url(#clip570)" d="M2327 1517.37 Q2323.39 1517.37 2321.56 1520.93 Q2319.76 1524.47 2319.76 1531.6 Q2319.76 1538.71 2321.56 1542.27 Q2323.39 1545.82 2327 1545.82 Q2330.64 1545.82 2332.44 1542.27 Q2334.27 1538.71 2334.27 1531.6 Q2334.27 1524.47 2332.44 1520.93 Q2330.64 1517.37 2327 1517.37 M2327 1513.66 Q2332.81 1513.66 2335.87 1518.27 Q2338.95 1522.85 2338.95 1531.6 Q2338.95 1540.33 2335.87 1544.94 Q2332.81 1549.52 2327 1549.52 Q2321.19 1549.52 2318.11 1544.94 Q2315.06 1540.33 2315.06 1531.6 Q2315.06 1522.85 2318.11 1518.27 Q2321.19 1513.66 2327 1513.66 Z" fill="#000000" fill-rule="nonzero" fill-opacity="1"></path><polyline clip-path="url(#clip570)" style="stroke:#000000; stroke-linecap:round; stroke-linejoin:round; stroke-width:4; stroke-opacity:1; fill:none" points="147.709,1486.45 147.709,47.2441 "></polyline>
<polyline clip-path="url(#clip570)" style="stroke:#000000; stroke-linecap:round; stroke-linejoin:round; stroke-width:4; stroke-opacity:1; fill:none" points="147.709,1324.4 166.607,1324.4 "></polyline>
<polyline clip-path="url(#clip570)" style="stroke:#000000; stroke-linecap:round; stroke-linejoin:round; stroke-width:4; stroke-opacity:1; fill:none" points="147.709,992.064 166.607,992.064 "></polyline>
<polyline clip-path="url(#clip570)" style="stroke:#000000; stroke-linecap:round; stroke-linejoin:round; stroke-width:4; stroke-opacity:1; fill:none" points="147.709,659.728 166.607,659.728 "></polyline>
<polyline clip-path="url(#clip570)" style="stroke:#000000; stroke-linecap:round; stroke-linejoin:round; stroke-width:4; stroke-opacity:1; fill:none" points="147.709,327.392 166.607,327.392 "></polyline>
<path clip-path="url(#clip570)" d="M50.9921 1324.85 L80.6679 1324.85 L80.6679 1328.79 L50.9921 1328.79 L50.9921 1324.85 Z" fill="#000000" fill-rule="nonzero" fill-opacity="1"></path><path clip-path="url(#clip570)" d="M90.8067 1307.12 L109.163 1307.12 L109.163 1311.06 L95.0891 1311.06 L95.0891 1319.53 Q96.1076 1319.18 97.1261 1319.02 Q98.1447 1318.83 99.1632 1318.83 Q104.95 1318.83 108.33 1322 Q111.709 1325.18 111.709 1330.59 Q111.709 1336.17 108.237 1339.27 Q104.765 1342.35 98.4456 1342.35 Q96.2697 1342.35 94.0012 1341.98 Q91.7558 1341.61 89.3484 1340.87 L89.3484 1336.17 Q91.4317 1337.31 93.6539 1337.86 Q95.8761 1338.42 98.353 1338.42 Q102.358 1338.42 104.696 1336.31 Q107.033 1334.2 107.033 1330.59 Q107.033 1326.98 104.696 1324.88 Q102.358 1322.77 98.353 1322.77 Q96.478 1322.77 94.603 1323.19 Q92.7512 1323.6 90.8067 1324.48 L90.8067 1307.12 Z" fill="#000000" fill-rule="nonzero" fill-opacity="1"></path><path clip-path="url(#clip570)" d="M99.765 977.863 Q96.1539 977.863 94.3252 981.428 Q92.5197 984.969 92.5197 992.099 Q92.5197 999.205 94.3252 1002.77 Q96.1539 1006.31 99.765 1006.31 Q103.399 1006.31 105.205 1002.77 Q107.033 999.205 107.033 992.099 Q107.033 984.969 105.205 981.428 Q103.399 977.863 99.765 977.863 M99.765 974.159 Q105.575 974.159 108.631 978.766 Q111.709 983.349 111.709 992.099 Q111.709 1000.83 108.631 1005.43 Q105.575 1010.02 99.765 1010.02 Q93.9549 1010.02 90.8762 1005.43 Q87.8206 1000.83 87.8206 992.099 Q87.8206 983.349 90.8762 978.766 Q93.9549 974.159 99.765 974.159 Z" fill="#000000" fill-rule="nonzero" fill-opacity="1"></path><path clip-path="url(#clip570)" d="M90.8067 642.448 L109.163 642.448 L109.163 646.383 L95.0891 646.383 L95.0891 654.855 Q96.1076 654.508 97.1261 654.346 Q98.1447 654.161 99.1632 654.161 Q104.95 654.161 108.33 657.332 Q111.709 660.503 111.709 665.92 Q111.709 671.499 108.237 674.601 Q104.765 677.679 98.4456 677.679 Q96.2697 677.679 94.0012 677.309 Q91.7558 676.939 89.3484 676.198 L89.3484 671.499 Q91.4317 672.633 93.6539 673.189 Q95.8761 673.744 98.353 673.744 Q102.358 673.744 104.696 671.638 Q107.033 669.531 107.033 665.92 Q107.033 662.309 104.696 660.203 Q102.358 658.096 98.353 658.096 Q96.478 658.096 94.603 658.513 Q92.7512 658.929 90.8067 659.809 L90.8067 642.448 Z" fill="#000000" fill-rule="nonzero" fill-opacity="1"></path><path clip-path="url(#clip570)" d="M60.4134 340.736 L68.0522 340.736 L68.0522 314.371 L59.7421 316.038 L59.7421 311.778 L68.0059 310.112 L72.6818 310.112 L72.6818 340.736 L80.3207 340.736 L80.3207 344.672 L60.4134 344.672 L60.4134 340.736 Z" fill="#000000" fill-rule="nonzero" fill-opacity="1"></path><path clip-path="url(#clip570)" d="M99.765 313.19 Q96.1539 313.19 94.3252 316.755 Q92.5197 320.297 92.5197 327.426 Q92.5197 334.533 94.3252 338.098 Q96.1539 341.639 99.765 341.639 Q103.399 341.639 105.205 338.098 Q107.033 334.533 107.033 327.426 Q107.033 320.297 105.205 316.755 Q103.399 313.19 99.765 313.19 M99.765 309.487 Q105.575 309.487 108.631 314.093 Q111.709 318.676 111.709 327.426 Q111.709 336.153 108.631 340.76 Q105.575 345.343 99.765 345.343 Q93.9549 345.343 90.8762 340.76 Q87.8206 336.153 87.8206 327.426 Q87.8206 318.676 90.8762 314.093 Q93.9549 309.487 99.765 309.487 Z" fill="#000000" fill-rule="nonzero" fill-opacity="1"></path><circle clip-path="url(#clip572)" cx="392.703" cy="1000.94" r="14.4" fill="#009af9" fill-rule="evenodd" fill-opacity="1" stroke="#000000" stroke-opacity="1" stroke-width="3.2"></circle>
<circle clip-path="url(#clip572)" cx="435.428" cy="1129.8" r="14.4" fill="#009af9" fill-rule="evenodd" fill-opacity="1" stroke="#000000" stroke-opacity="1" stroke-width="3.2"></circle>
<circle clip-path="url(#clip572)" cx="1179.6" cy="1126.58" r="14.4" fill="#009af9" fill-rule="evenodd" fill-opacity="1" stroke="#000000" stroke-opacity="1" stroke-width="3.2"></circle>
<circle clip-path="url(#clip572)" cx="1997.98" cy="1022.51" r="14.4" fill="#009af9" fill-rule="evenodd" fill-opacity="1" stroke="#000000" stroke-opacity="1" stroke-width="3.2"></circle>
<circle clip-path="url(#clip572)" cx="2073.67" cy="977.227" r="14.4" fill="#009af9" fill-rule="evenodd" fill-opacity="1" stroke="#000000" stroke-opacity="1" stroke-width="3.2"></circle>
<polyline clip-path="url(#clip572)" style="stroke:#e26f46; stroke-linecap:round; stroke-linejoin:round; stroke-width:4; stroke-opacity:1; fill:none" points="210.116,87.9763 230.919,226.171 251.721,354.736 272.523,474.053 293.326,584.497 314.128,686.436 334.93,780.231 355.733,866.237 376.535,944.8 397.337,1016.26 418.14,1080.95 438.942,1139.2 459.744,1191.32 480.547,1237.63 501.349,1278.44 522.151,1314.03 542.954,1344.71 563.756,1370.75 584.558,1392.44 605.361,1410.04 626.163,1423.82 646.965,1434.03 667.768,1440.92 688.57,1444.74 709.372,1445.72 730.175,1444.08 750.977,1440.05 771.779,1433.85 792.581,1425.67 813.384,1415.73 834.186,1404.21 854.988,1391.3 875.791,1377.18 896.593,1362.02 917.395,1345.98 938.198,1329.23 959,1311.92 979.802,1294.19 1000.6,1276.17 1021.41,1258.01 1042.21,1239.81 1063.01,1221.7 1083.81,1203.79 1104.62,1186.18 1125.42,1168.96 1146.22,1152.22 1167.02,1136.05 1187.83,1120.51 1208.63,1105.69 1229.43,1091.62 1250.23,1078.38 1271.03,1066 1291.84,1054.53 1312.64,1044 1333.44,1034.42 1354.24,1025.83 1375.05,1018.23 1395.85,1011.63 1416.65,1006.02 1437.45,1001.4 1458.26,997.744 1479.06,995.034 1499.86,993.237 1520.66,992.317 1541.47,992.228 1562.27,992.92 1583.07,994.334 1603.87,996.403 1624.67,999.056 1645.48,1002.21 1666.28,1005.79 1687.08,1009.69 1707.88,1013.81 1728.69,1018.05 1749.49,1022.29 1770.29,1026.41 1791.09,1030.28 1811.9,1033.77 1832.7,1036.73 1853.5,1039.01 1874.3,1040.47 1895.1,1040.92 1915.91,1040.21 1936.71,1038.16 1957.51,1034.58 1978.31,1029.28 1999.12,1022.06 2019.92,1012.72 2040.72,1001.04 2061.52,986.812 2082.33,969.798 2103.13,949.769 2123.93,926.484 2144.73,899.697 2165.53,869.153 2186.34,834.591 2207.14,795.741 2227.94,752.33 2248.74,704.074 2269.55,650.685 2290.35,591.865 "></polyline>
</svg>